<svg xmlns="http://www.w3.org/2000/svg" viewBox="0 0 1200 640" role="img" aria-label="Zhuyz Pro blog hero">
  <defs>
    <linearGradient id="sky" x1="0" y1="0" x2="1" y2="1">
      <stop offset="0" stop-color="#e8f1ff"/>
      <stop offset="0.52" stop-color="#f7fbff"/>
      <stop offset="1" stop-color="#dbe7ff"/>
    </linearGradient>
    <linearGradient id="desk" x1="0" y1="0" x2="1" y2="0">
      <stop offset="0" stop-color="#1f2a44"/>
      <stop offset="1" stop-color="#3b5bdb"/>
    </linearGradient>
    <linearGradient id="screen" x1="0" y1="0" x2="1" y2="1">
      <stop offset="0" stop-color="#0f172a"/>
      <stop offset="1" stop-color="#1d4ed8"/>
    </linearGradient>
    <filter id="shadow" x="-20%" y="-20%" width="140%" height="140%">
      <feDropShadow dx="0" dy="20" stdDeviation="24" flood-color="#0f172a" flood-opacity=".22"/>
    </filter>
  </defs>
  <rect width="1200" height="640" fill="url(#sky)"/>
  <circle cx="1010" cy="112" r="150" fill="#fff" opacity=".72"/>
  <circle cx="170" cy="100" r="120" fill="#bcd4ff" opacity=".42"/>
  <path d="M0 504 C218 430 348 555 550 492 C742 432 852 470 1200 380 L1200 640 L0 640 Z" fill="#eef5ff"/>
  <rect x="138" y="390" width="930" height="96" rx="28" fill="url(#desk)" filter="url(#shadow)"/>
  <rect x="304" y="134" width="348" height="230" rx="24" fill="url(#screen)" filter="url(#shadow)"/>
  <rect x="332" y="162" width="292" height="174" rx="12" fill="#08111f"/>
  <path d="M370 216 h160 M370 252 h210 M370 288 h134" stroke="#7dd3fc" stroke-width="16" stroke-linecap="round" opacity=".9"/>
  <path d="M472 364 h24 l18 68 h-60 z" fill="#1f2a44"/>
  <rect x="420" y="420" width="126" height="18" rx="9" fill="#111827"/>
  <rect x="720" y="212" width="172" height="178" rx="28" fill="#ffffff" filter="url(#shadow)"/>
  <path d="M758 262 h98 M758 302 h78 M758 342 h112" stroke="#3b5bdb" stroke-width="14" stroke-linecap="round"/>
  <rect x="910" y="324" width="92" height="62" rx="18" fill="#f59e0b"/>
  <circle cx="956" cy="324" r="30" fill="#fbbf24"/>
  <rect x="162" y="426" width="190" height="18" rx="9" fill="#93c5fd" opacity=".72"/>
  <rect x="754" y="424" width="242" height="18" rx="9" fill="#bfdbfe" opacity=".72"/>
</svg>
